<svg width="35" height="29" viewBox="0 0 35 29" fill="none" xmlns="http://www.w3.org/2000/svg">
<path d="M11.8925 12.4711C11.5097 12.2919 11.5081 11.7481 11.8898 11.5667L21.0608 7.20818C21.5826 6.96019 22.1861 6.94996 22.7161 7.18013L26.2324 8.70744C26.6273 8.87895 26.6352 9.43612 26.2454 9.6188L17.3 13.8106C16.4939 14.1884 15.5616 14.1886 14.7552 13.8111L11.8925 12.4711Z" fill="#0D396A"/>
<path d="M9.85772 10.8443C9.33459 11.076 8.73729 11.0725 8.21688 10.8348L5.68475 9.67816C5.28804 9.49694 5.29731 8.93016 5.69973 8.76201L14.6386 5.02699C15.631 4.6123 16.7487 4.61479 17.7393 5.03389L19.3549 5.71739C19.7581 5.88799 19.7628 6.45776 19.3625 6.63505L9.85772 10.8443Z" fill="#0D396A"/>
<path d="M16.5698 16.4982C16.5698 15.7188 17.0226 15.0104 17.73 14.6831L26.7553 10.5072C27.0867 10.3539 27.4653 10.5958 27.4653 10.961V15.2199C27.4653 15.2199 24.3414 16.7458 22.4105 17.9517C19.8708 19.5378 16.5698 22.8088 16.5698 22.8088V16.4982Z" fill="#0D396A"/>
<path d="M14.3924 14.6967C15.1222 15.0144 15.5942 15.7346 15.5942 16.5305L15.5942 23.405L14.5083 24.1897C14.0322 24.5337 13.4829 24.7629 12.9035 24.8595C11.6542 25.0677 10.3711 24.8974 9.21929 24.3706L4.82394 22.3603C4.627 22.2702 4.50069 22.0736 4.50069 21.857L4.50069 10.9445C4.50069 10.5836 4.87141 10.3415 5.20184 10.4867L8.81834 12.0759L8.81834 15.1461C8.81834 15.5567 9.05035 15.9321 9.41763 16.1158C10.1385 16.4762 10.9866 15.952 10.9866 15.1461L10.9866 13.2142L14.3924 14.6967Z" fill="#0D396A"/>
<path d="M4.37341 23.729C4.37341 23.729 5.24071 23.5664 7.08373 24.2167C7.65254 24.4175 8.21102 24.6595 8.71137 24.8982C9.45991 25.2553 11.8977 25.8868 12.7212 25.7885C15.4315 25.4649 17.3829 23.5134 17.3829 23.5134L18.3714 22.4862C21.3519 19.3888 25.0538 17.0785 29.1457 15.7619H29.9588L30.8261 19.339H29.7962C26.9917 20.0138 24.4169 21.4217 22.3352 23.4184L20.2017 25.4649C20.2017 25.4649 17.1962 27.89 14.9437 28.121C13.9252 28.2255 13.0073 28.3173 11.9962 28.1966C9.28943 27.8734 4.59024 24.8671 4.59024 24.8671C3.52552 24.6187 2.41373 24.6597 1.37017 24.9857L0.708923 25.1923C1.59495 24.2581 2.82595 23.729 4.11352 23.729H4.37341Z" fill="#039DE1"/>
<path d="M28.8856 14.4343C28.832 14.057 29.2034 13.7609 29.5593 13.8971L34.3184 15.718C34.6466 15.8435 34.7463 16.2595 34.5106 16.5202L30.6206 20.8241C30.3363 21.1386 29.8142 20.9788 29.7546 20.5591L28.8856 14.4343Z" fill="#039DE1"/>
</svg>
