<svg width="111" height="52" viewBox="0 0 111 52" fill="none" xmlns="http://www.w3.org/2000/svg">
<rect y="3" width="111" height="49" rx="24.5" fill="white"/>
<path d="M51.8925 12.4711C51.5097 12.2919 51.5081 11.7481 51.8899 11.5667L61.0609 7.20818C61.5827 6.96019 62.1862 6.94996 62.7161 7.18013L66.2325 8.70744C66.6274 8.87895 66.6353 9.43612 66.2454 9.6188L57.3001 13.8106C56.4939 14.1884 55.5616 14.1886 54.7553 13.8111L51.8925 12.4711Z" fill="#0D396A"/>
<path d="M49.8577 10.8443C49.3346 11.076 48.7373 11.0725 48.2169 10.8348L45.6848 9.67816C45.288 9.49694 45.2973 8.93016 45.6997 8.76201L54.6386 5.02699C55.631 4.6123 56.7487 4.61479 57.7393 5.03389L59.3549 5.71739C59.7581 5.88799 59.7628 6.45776 59.3625 6.63505L49.8577 10.8443Z" fill="#0D396A"/>
<path d="M56.5698 16.4982C56.5698 15.7188 57.0226 15.0104 57.73 14.6831L66.7553 10.5072C67.0867 10.3539 67.4653 10.5958 67.4653 10.961V15.2199C67.4653 15.2199 64.3414 16.7458 62.4105 17.9517C59.8708 19.5378 56.5698 22.8088 56.5698 22.8088V16.4982Z" fill="#0D396A"/>
<path d="M54.3923 14.6967C55.1221 15.0144 55.5941 15.7346 55.5941 16.5305L55.5941 23.405L54.5082 24.1897C54.0321 24.5337 53.4829 24.7629 52.9035 24.8595C51.6541 25.0677 50.3711 24.8974 49.2192 24.3706L44.8239 22.3603C44.6269 22.2702 44.5006 22.0736 44.5006 21.857L44.5006 10.9445C44.5006 10.5836 44.8713 10.3415 45.2018 10.4867L48.8183 12.0759L48.8183 15.1461C48.8183 15.5567 49.0503 15.9321 49.4176 16.1158C50.1384 16.4762 50.9865 15.952 50.9865 15.1461L50.9865 13.2142L54.3923 14.6967Z" fill="#0D396A"/>
<path d="M44.3734 23.729C44.3734 23.729 45.2407 23.5664 47.0837 24.2167C47.6525 24.4175 48.211 24.6595 48.7113 24.8982C49.4599 25.2553 51.8976 25.8868 52.7211 25.7885C55.4314 25.4649 57.3829 23.5134 57.3829 23.5134L58.3714 22.4862C61.3519 19.3888 65.0537 17.0785 69.1457 15.7619H69.9588L70.8261 19.339H69.7961C66.9917 20.0138 64.4169 21.4217 62.3351 23.4184L60.2016 25.4649C60.2016 25.4649 57.1961 27.89 54.9436 28.121C53.9251 28.2255 53.0073 28.3173 51.9961 28.1966C49.2894 27.8734 44.5902 24.8671 44.5902 24.8671C43.5255 24.6187 42.4137 24.6597 41.3701 24.9857L40.7089 25.1923C41.5949 24.2581 42.8259 23.729 44.1135 23.729H44.3734Z" fill="#039DE1"/>
<path d="M68.8855 14.4343C68.832 14.057 69.2033 13.7609 69.5592 13.8971L74.3183 15.718C74.6465 15.8435 74.7462 16.2595 74.5106 16.5202L70.6205 20.8241C70.3363 21.1386 69.8141 20.9788 69.7546 20.5591L68.8855 14.4343Z" fill="#039DE1"/>
<path d="M21.4922 40.5625C21.4922 41.0469 21.4297 41.474 21.3047 41.8438C21.1849 42.2135 21.013 42.5339 20.7891 42.8047C20.5703 43.0755 20.3099 43.3021 20.0078 43.4844C19.7057 43.6667 19.375 43.8125 19.0156 43.9219C18.6615 44.0312 18.2839 44.1094 17.8828 44.1562C17.487 44.2031 17.0833 44.2266 16.6719 44.2266C16.1302 44.2266 15.6302 44.1849 15.1719 44.1016C14.7135 44.0234 14.2812 43.8984 13.875 43.7266C13.474 43.5495 13.0859 43.3229 12.7109 43.0469C12.3411 42.7708 11.9714 42.4349 11.6016 42.0391L13.1953 40.4219C13.3411 40.7812 13.5417 41.1146 13.7969 41.4219C14.0521 41.724 14.3307 41.9844 14.6328 42.2031C14.9401 42.4219 15.2578 42.5938 15.5859 42.7188C15.9141 42.8438 16.224 42.9062 16.5156 42.9062C16.8594 42.9062 17.1823 42.8828 17.4844 42.8359C17.7865 42.7839 18.0495 42.7005 18.2734 42.5859C18.4974 42.4714 18.6719 42.3203 18.7969 42.1328C18.9271 41.9401 18.9922 41.7005 18.9922 41.4141C18.9922 41.1953 18.9427 41.0078 18.8438 40.8516C18.7448 40.6953 18.6146 40.5625 18.4531 40.4531C18.2969 40.3385 18.1172 40.2422 17.9141 40.1641C17.7109 40.0859 17.5026 40.0208 17.2891 39.9688C17.0807 39.9115 16.875 39.862 16.6719 39.8203C16.4688 39.7734 16.2891 39.7266 16.1328 39.6797C15.8255 39.5911 15.5052 39.4974 15.1719 39.3984C14.8385 39.2943 14.5104 39.1771 14.1875 39.0469C13.8646 38.9167 13.5573 38.7682 13.2656 38.6016C12.9792 38.4297 12.7266 38.2292 12.5078 38C12.2891 37.7656 12.1146 37.4974 11.9844 37.1953C11.8542 36.888 11.7891 36.5365 11.7891 36.1406C11.7891 35.6667 11.8464 35.2474 11.9609 34.8828C12.0807 34.513 12.2474 34.1927 12.4609 33.9219C12.6745 33.651 12.9271 33.4245 13.2188 33.2422C13.5104 33.0547 13.8307 32.9062 14.1797 32.7969C14.5286 32.6823 14.8984 32.6016 15.2891 32.5547C15.6849 32.5026 16.0885 32.4766 16.5 32.4766C17.0625 32.4766 17.5729 32.5286 18.0312 32.6328C18.4948 32.737 18.9219 32.8854 19.3125 33.0781C19.7031 33.2708 20.0599 33.5026 20.3828 33.7734C20.7109 34.0391 21.0182 34.3359 21.3047 34.6641L19.7109 36.2812C19.5859 35.9062 19.4115 35.5677 19.1875 35.2656C18.9688 34.9635 18.724 34.7057 18.4531 34.4922C18.1823 34.2734 17.8984 34.1068 17.6016 33.9922C17.3047 33.8724 17.0182 33.8125 16.7422 33.8125C16.3828 33.8125 16.0521 33.8385 15.75 33.8906C15.4479 33.9375 15.1875 34.0182 14.9688 34.1328C14.7552 34.2422 14.5885 34.3932 14.4688 34.5859C14.349 34.7734 14.2891 35.0078 14.2891 35.2891C14.2891 35.513 14.3333 35.7031 14.4219 35.8594C14.5104 36.0156 14.6276 36.1484 14.7734 36.2578C14.9245 36.3672 15.0938 36.4583 15.2812 36.5312C15.4688 36.599 15.6615 36.6589 15.8594 36.7109C16.0625 36.763 16.2604 36.8099 16.4531 36.8516C16.651 36.888 16.8307 36.9297 16.9922 36.9766C17.3047 37.0651 17.6328 37.1589 17.9766 37.2578C18.3203 37.3568 18.6589 37.474 18.9922 37.6094C19.3255 37.7396 19.6432 37.8906 19.9453 38.0625C20.2474 38.2344 20.513 38.4401 20.7422 38.6797C20.9714 38.9141 21.1536 39.1875 21.2891 39.5C21.4245 39.8073 21.4922 40.1615 21.4922 40.5625ZM26.5469 44H23.8984V36.0234H22.2578V34.9766H23.8984V31.6562H26.5469V34.9766H29.2812V36.0234H26.5469V44ZM39.6484 39.4688C39.6484 39.9375 39.5859 40.3776 39.4609 40.7891C39.3359 41.2005 39.1615 41.5807 38.9375 41.9297C38.7188 42.2786 38.4531 42.5938 38.1406 42.875C37.8281 43.151 37.4844 43.3854 37.1094 43.5781C36.7396 43.7708 36.3411 43.9193 35.9141 44.0234C35.4922 44.1276 35.0573 44.1797 34.6094 44.1797C34.1615 44.1797 33.7266 44.1276 33.3047 44.0234C32.8828 43.9193 32.4844 43.7708 32.1094 43.5781C31.7396 43.3854 31.3984 43.151 31.0859 42.875C30.7734 42.5938 30.5052 42.2786 30.2812 41.9297C30.0625 41.5807 29.8906 41.2005 29.7656 40.7891C29.6406 40.3724 29.5781 39.9323 29.5781 39.4688C29.5781 39.0052 29.6406 38.5677 29.7656 38.1562C29.8906 37.7396 30.0625 37.3568 30.2812 37.0078C30.5052 36.6589 30.7734 36.3464 31.0859 36.0703C31.3984 35.7891 31.7396 35.5521 32.1094 35.3594C32.4844 35.1667 32.8828 35.0182 33.3047 34.9141C33.7266 34.8099 34.1615 34.7578 34.6094 34.7578C35.0573 34.7578 35.4922 34.8099 35.9141 34.9141C36.3411 35.0182 36.7396 35.1667 37.1094 35.3594C37.4844 35.5521 37.8281 35.7891 38.1406 36.0703C38.4531 36.3464 38.7188 36.6589 38.9375 37.0078C39.1615 37.3568 39.3359 37.7396 39.4609 38.1562C39.5859 38.5677 39.6484 39.0052 39.6484 39.4688ZM36.9609 39.4688C36.9609 39.2188 36.9453 38.9557 36.9141 38.6797C36.888 38.3984 36.8411 38.125 36.7734 37.8594C36.7057 37.5885 36.612 37.3307 36.4922 37.0859C36.3776 36.8359 36.2344 36.6198 36.0625 36.4375C35.8906 36.25 35.6849 36.1016 35.4453 35.9922C35.2057 35.8776 34.9271 35.8203 34.6094 35.8203C34.3073 35.8203 34.0391 35.8776 33.8047 35.9922C33.5703 36.1068 33.3646 36.2604 33.1875 36.4531C33.0156 36.6406 32.8698 36.8594 32.75 37.1094C32.6354 37.3594 32.5417 37.6198 32.4688 37.8906C32.3958 38.1562 32.3438 38.4271 32.3125 38.7031C32.2812 38.974 32.2656 39.2292 32.2656 39.4688C32.2656 39.7083 32.2812 39.9661 32.3125 40.2422C32.3438 40.513 32.3958 40.7839 32.4688 41.0547C32.5417 41.3255 32.6354 41.5859 32.75 41.8359C32.8698 42.0807 33.0156 42.2995 33.1875 42.4922C33.3646 42.6797 33.5703 42.8307 33.8047 42.9453C34.0391 43.0599 34.3073 43.1172 34.6094 43.1172C34.9219 43.1172 35.1979 43.0625 35.4375 42.9531C35.6771 42.8385 35.8828 42.6875 36.0547 42.5C36.2318 42.3125 36.3776 42.0964 36.4922 41.8516C36.6068 41.6068 36.6979 41.349 36.7656 41.0781C36.8385 40.8073 36.888 40.5339 36.9141 40.2578C36.9453 39.9818 36.9609 39.7188 36.9609 39.4688ZM49.6484 37.2109L48.5078 37.6641C48.3255 37.0911 48.0208 36.651 47.5938 36.3438C47.1667 36.0365 46.6536 35.8828 46.0547 35.8828C45.7318 35.8828 45.4427 35.9349 45.1875 36.0391C44.9375 36.138 44.7161 36.276 44.5234 36.4531C44.3359 36.6302 44.1745 36.8359 44.0391 37.0703C43.9089 37.3047 43.8021 37.5547 43.7188 37.8203C43.6354 38.0859 43.5755 38.362 43.5391 38.6484C43.5026 38.9297 43.4844 39.2031 43.4844 39.4688C43.4844 39.7552 43.5 40.0443 43.5312 40.3359C43.5625 40.6276 43.6146 40.9089 43.6875 41.1797C43.7656 41.4453 43.8672 41.6953 43.9922 41.9297C44.1172 42.1589 44.2734 42.3594 44.4609 42.5312C44.6536 42.7031 44.8802 42.8385 45.1406 42.9375C45.4062 43.0365 45.7109 43.0859 46.0547 43.0859C46.3307 43.0859 46.5938 43.0443 46.8438 42.9609C47.0938 42.8776 47.3229 42.7604 47.5312 42.6094C47.7396 42.4583 47.9245 42.2786 48.0859 42.0703C48.2474 41.862 48.375 41.6302 48.4688 41.375L49.6172 41.7969C49.4453 42.2083 49.2161 42.5651 48.9297 42.8672C48.6484 43.1641 48.3281 43.4115 47.9688 43.6094C47.6094 43.8021 47.224 43.9453 46.8125 44.0391C46.401 44.1328 45.9844 44.1797 45.5625 44.1797C44.8802 44.1797 44.2474 44.0651 43.6641 43.8359C43.0807 43.6016 42.5755 43.276 42.1484 42.8594C41.7266 42.4375 41.3958 41.9401 41.1562 41.3672C40.9167 40.7891 40.7969 40.1562 40.7969 39.4688C40.7969 38.776 40.9141 38.1406 41.1484 37.5625C41.388 36.9844 41.7188 36.487 42.1406 36.0703C42.5625 35.6536 43.0651 35.3307 43.6484 35.1016C44.2318 34.8724 44.8698 34.7578 45.5625 34.7578C46 34.7578 46.4271 34.8073 46.8438 34.9062C47.2604 35 47.6458 35.1484 48 35.3516C48.3594 35.5495 48.6797 35.8021 48.9609 36.1094C49.2474 36.4167 49.4766 36.7839 49.6484 37.2109ZM53.8516 44H51.2109V31.6562H53.8516V39.7578C54.2839 39.4453 54.7083 39.1016 55.125 38.7266C55.5469 38.3516 55.9479 37.9583 56.3281 37.5469C56.7083 37.1302 57.0599 36.7057 57.3828 36.2734C57.7109 35.8411 57.9974 35.4089 58.2422 34.9766H60.0391C59.6745 35.5911 59.2422 36.2057 58.7422 36.8203C58.2422 37.4297 57.6979 38.013 57.1094 38.5703L60.0703 44H57.1562L55.0547 40.2344C54.6641 40.5 54.263 40.7448 53.8516 40.9688V44Z" fill="#0D396A"/>
<path d="M64.7188 44H61.6172V32.75H69.6953V34.1875H64.7188V37.6641H68.5625V39.0938H64.7188V44ZM73.7109 44H71.0703V30.8203H72.0859L73.7109 33.5625V44ZM85.4453 39.4688C85.4453 39.9375 85.3828 40.3776 85.2578 40.7891C85.1328 41.2005 84.9583 41.5807 84.7344 41.9297C84.5156 42.2786 84.25 42.5938 83.9375 42.875C83.625 43.151 83.2812 43.3854 82.9062 43.5781C82.5365 43.7708 82.138 43.9193 81.7109 44.0234C81.2891 44.1276 80.8542 44.1797 80.4062 44.1797C79.9583 44.1797 79.5234 44.1276 79.1016 44.0234C78.6797 43.9193 78.2812 43.7708 77.9062 43.5781C77.5365 43.3854 77.1953 43.151 76.8828 42.875C76.5703 42.5938 76.3021 42.2786 76.0781 41.9297C75.8594 41.5807 75.6875 41.2005 75.5625 40.7891C75.4375 40.3724 75.375 39.9323 75.375 39.4688C75.375 39.0052 75.4375 38.5677 75.5625 38.1562C75.6875 37.7396 75.8594 37.3568 76.0781 37.0078C76.3021 36.6589 76.5703 36.3464 76.8828 36.0703C77.1953 35.7891 77.5365 35.5521 77.9062 35.3594C78.2812 35.1667 78.6797 35.0182 79.1016 34.9141C79.5234 34.8099 79.9583 34.7578 80.4062 34.7578C80.8542 34.7578 81.2891 34.8099 81.7109 34.9141C82.138 35.0182 82.5365 35.1667 82.9062 35.3594C83.2812 35.5521 83.625 35.7891 83.9375 36.0703C84.25 36.3464 84.5156 36.6589 84.7344 37.0078C84.9583 37.3568 85.1328 37.7396 85.2578 38.1562C85.3828 38.5677 85.4453 39.0052 85.4453 39.4688ZM82.7578 39.4688C82.7578 39.2188 82.7422 38.9557 82.7109 38.6797C82.6849 38.3984 82.638 38.125 82.5703 37.8594C82.5026 37.5885 82.4089 37.3307 82.2891 37.0859C82.1745 36.8359 82.0312 36.6198 81.8594 36.4375C81.6875 36.25 81.4818 36.1016 81.2422 35.9922C81.0026 35.8776 80.724 35.8203 80.4062 35.8203C80.1042 35.8203 79.8359 35.8776 79.6016 35.9922C79.3672 36.1068 79.1615 36.2604 78.9844 36.4531C78.8125 36.6406 78.6667 36.8594 78.5469 37.1094C78.4323 37.3594 78.3385 37.6198 78.2656 37.8906C78.1927 38.1562 78.1406 38.4271 78.1094 38.7031C78.0781 38.974 78.0625 39.2292 78.0625 39.4688C78.0625 39.7083 78.0781 39.9661 78.1094 40.2422C78.1406 40.513 78.1927 40.7839 78.2656 41.0547C78.3385 41.3255 78.4323 41.5859 78.5469 41.8359C78.6667 42.0807 78.8125 42.2995 78.9844 42.4922C79.1615 42.6797 79.3672 42.8307 79.6016 42.9453C79.8359 43.0599 80.1042 43.1172 80.4062 43.1172C80.7188 43.1172 80.9948 43.0625 81.2344 42.9531C81.474 42.8385 81.6797 42.6875 81.8516 42.5C82.0286 42.3125 82.1745 42.0964 82.2891 41.8516C82.4036 41.6068 82.4948 41.349 82.5625 41.0781C82.6354 40.8073 82.6849 40.5339 82.7109 40.2578C82.7422 39.9818 82.7578 39.7188 82.7578 39.4688ZM91.0547 44H88.6797L86.2109 34.9766H88.8516L90.3984 41.3047L91.6875 34.9766H94.0625L95.6406 41.4766L97.1641 34.9766H98.9922L96.2578 44H93.8828L92.5469 38.5156L91.0547 44Z" fill="#039DE1"/>
</svg>
